<svg xmlns="http://www.w3.org/2000/svg" xmlns:xlink="http://www.w3.org/1999/xlink" width="48" height="48" viewBox="0 0 48 48" fill="none" role="img" aria-label="Databricks Connect (outline c)">
<title>Databricks Connect (outline c)</title>
<rect x="2" y="2" width="44" height="44" rx="12" fill="#FFFFFF" stroke="#FF3621" stroke-width="4"/>
<g transform="translate(24 24) scale(0.72) translate(-24 -24)"><g transform="translate(2 2) scale(0.4583)"><g clip-path="url(#databricks-connect-clip0_2402_4048)">
<path d="M54.7229 38.3047L47.9162 45.1114L41.1152 38.3047" stroke="#FF5F46" stroke-width="1.92" stroke-miterlimit="3" stroke-linecap="square"/>
<path d="M41.1152 57.8634L47.9162 51.0566L54.7229 57.8634" stroke="#FF5F46" stroke-width="1.92" stroke-miterlimit="3" stroke-linecap="square"/>
<path d="M25.8945 27.2415H14.1143V67.0294C14.1143 75.2357 20.7649 81.8863 28.9711 81.8863H64.948V81.8516V27.2415H47.9224V44.5157" stroke="#FF5F46" stroke-width="1.92" stroke-miterlimit="3" stroke-linecap="square"/>
<path d="M70.4186 64.9419H81.8865V28.965C81.8865 20.7588 75.2359 14.1082 67.0297 14.1082H31.0586V64.9361H47.9222V51.6407" stroke="#FF5F46" stroke-width="1.92" stroke-miterlimit="3" stroke-linecap="square"/>
</g>
<defs>
<clipPath id="databricks-connect-clip0_2402_4048">
<rect width="69.5537" height="69.5537" fill="white" transform="translate(13.2231 13.2231)"/>
</clipPath>
</defs></g></g>
</svg>
