<svg xmlns="http://www.w3.org/2000/svg" xmlns:xlink="http://www.w3.org/1999/xlink" width="48" height="48" viewBox="0 0 48 48" fill="none" role="img" aria-label="Genie Code (tile)">
<title>Genie Code (tile)</title>
<rect width="48" height="48" rx="10" fill="#98102A"/>
<g transform="translate(24 24) scale(0.82) translate(-24 -24)"><g transform="translate(2 2) scale(2.75)"><path d="M10.5 14H5.5V12.5H10.5V14ZM2.85645 6C3.22823 6 3.56811 6.21043 3.73438 6.54297L4.3291 7.73145C5.02432 9.1218 6.44551 10 8 10C9.55449 10 10.9757 9.1218 11.6709 7.73145L12.2656 6.54297L12.335 6.42383C12.5165 6.16072 12.8182 6 13.1436 6H16V7.5H13.4639L13.0127 8.40234C12.0634 10.3009 10.1226 11.5 8 11.5C5.87735 11.5 3.93661 10.3009 2.9873 8.40234L2.53613 7.5H1.75586C1.61464 7.5002 1.5002 7.61464 1.5 7.75586V8.5C1.5 8.77614 1.72386 9 2 9V10.5C0.895432 10.5 1.51402e-06 9.60457 0 8.5V7.75586C0.000200565 6.78621 0.786215 6.0002 1.75586 6H2.85645ZM8 1.5C8.36452 1.5 8.67665 1.76202 8.73926 2.12109L8.96582 3.42383C9.02007 3.73573 9.26427 3.97994 9.57617 4.03418L10.8789 4.26074C11.238 4.32335 11.5 4.63548 11.5 5C11.5 5.36452 11.238 5.67665 10.8789 5.73926L9.57617 5.96582C9.26427 6.02006 9.02006 6.26427 8.96582 6.57617L8.73926 7.87891C8.67665 8.23798 8.36452 8.5 8 8.5C7.63548 8.5 7.32335 8.23798 7.26074 7.87891L7.03418 6.57617C6.97994 6.26427 6.73573 6.02007 6.42383 5.96582L5.12109 5.73926C4.76202 5.67665 4.5 5.36452 4.5 5C4.5 4.63548 4.76202 4.32335 5.12109 4.26074L6.42383 4.03418C6.73573 3.97993 6.97994 3.73573 7.03418 3.42383L7.26074 2.12109L7.2959 1.99121C7.40253 1.70057 7.6811 1.5 8 1.5Z" fill="#FFFFFF"/></g></g>
</svg>
